# AST/ASF file generated using VICON BodyLanguage
# -----------------------------------------------
:version 1.10
:name VICON
:units
  mass 1.0
  length 0.45
  angle deg
:documentation
   .ast/.asf automatically generated from VICON data using
   VICON BodyBuilder and BodyLanguage model FoxedUp or BRILLIANT.MOD
:root
   order TX TY TZ RX RY RZ
   axis XYZ
   position 0 0 0  
   orientation 0 0 0 
:bonedata
  begin
     id 1 
     name lhipjoint
     direction 0.596438 -0.722117 0.35044 
     length 2.43043 
     axis 0 0 0  XYZ
  end
  begin
     id 2 
     name lfemur
     direction 0.34202 -0.939693 0  
     length 7.0339  
     axis 0 0 20  XYZ
    dof rx ry rz
    limits (-160.0 20.0)
           (-70.0 70.0)
           (-60.0 70.0)
  end
  begin
     id 3 
     name ltibia
     direction 0.34202 -0.939693 0   
     length 7.56602   
     axis 0 0 20   XYZ
    dof rx
    limits (-10.0 170.0)
  end
  begin
     id 4 
     name lfoot
     direction 0.0985677 -0.270812 0.957572   
     length 1.85172   
     axis -90 7.62852e-016 20   XYZ
    dof rx rz
    limits (-45.0 90.0)
           (-70.0 20.0)
  end
  begin
     id 5 
     name ltoes
     direction 1.53534e-011 -4.21843e-011 1   
     length 0.929904   
     axis -90 7.62852e-016 20   XYZ
    dof rx
    limits (-90.0 20.0)
  end
  begin
     id 6 
     name rhipjoint
     direction -0.585088 -0.729594 0.354068   
     length 2.40552  
     axis 0 0 0  XYZ 
  end
  begin
     id 7 
     name rfemur
     direction -0.34202 -0.939693 0   
     length 7.12573   
     axis 0 0 -20   XYZ
    dof rx ry rz
    limits (-160.0 20.0)
           (-70.0 70.0)
           (-70.0 60.0)
  end
  begin
     id 8 
     name rtibia
     direction -0.34202 -0.939693 0   
     length 7.35777   
     axis 0 0 -20   XYZ
    dof rx
    limits (-10.0 170.0)
 end
 begin
     id 9 
     name rfoot
     direction -0.120907 -0.33219 0.935431   
     length 2.0994  
     axis -90 -7.62852e-016 -20   XYZ
    dof rx rz
    limits (-45.0 90.0)
           (-20.0 70.0)
  end
  begin
     id 10 
     name rtoes
     direction -1.53577e-011 -4.21787e-011 1   
     length 1.04244   
     axis -90 -7.62852e-016 -20   XYZ
    dof rx
    limits (-90.0 20.0)
  end
  begin
     id 11 
     name lowerback
     direction 0.00268363 0.993603 -0.112896   
     length 2.15839   
     axis 0 0 0   XYZ
    dof rx ry rz
    limits (-20.0 45.0)
           (-30.0 30.0)
           (-30.0 30.0)
  end
  begin
     id 12 
     name upperback
     direction 0.0272563 0.999411 -0.0208618   
     length 2.16443   
     axis 0 0 0   XYZ
    dof rx ry rz
    limits (-20.0 45.0)
           (-30.0 30.0)
           (-30.0 30.0)
  end
  begin
     id 13 
     name thorax
     direction 0.0254655 0.999174 0.0316806   
     length 2.19003   
     axis 0 0 0   XYZ
    dof rx ry rz
    limits (-20.0 45.0)
           (-30.0 30.0)
           (-30.0 30.0)
  end
  begin
     id 14 
     name lowerneck
     direction -0.0102178 0.988048 0.15381   
     length 1.61507   
     axis 0 0 0   XYZ
    dof rx ry rz
    limits (-20.0 45.0)
           (-30.0 30.0)
           (-30.0 30.0)
  end
  begin
     id 15 
     name upperneck
     direction -0.0061965 0.994088 -0.108398   
     length 1.64042   
     axis 0 0 0   XYZ
    dof rx ry rz
    limits (-20.0 45.0)
           (-30.0 30.0)
           (-30.0 30.0)
  end
  begin
     id 16
     name head
     direction -0.00151929 0.998591 -0.0530385  
     length 1.64343  
     axis 0 0 0   XYZ
    dof rx ry rz
    limits (-20.0 45.0)
           (-30.0 30.0)
           (-30.0 30.0)
  end
  begin
     id 17 
     name lclavicle
     direction 0.948974 0.284245 -0.136574  
     length 3.3483  
     axis 0 0 0   XYZ
    dof ry rz
    limits (-20.0 10.0)
           (0.0 20.0)
  end
  begin
     id 18 
     name lhumerus
     direction 1 -4.48961e-011 1.68576e-027   
     length 4.93485   
     axis -180 -30 -90   XYZ
    dof rx ry rz
    limits (-60.0 90.0)
           (-90.0 90.0)
           (-90.0 90.0)
  end
  begin
     id 19
     name lradius
     direction 1 -4.48965e-011 -2.46405e-027   
     length 3.41719   
     axis -180 -30 -90   XYZ
    dof rx
    limits (-10.0 170.0)
  end
  begin
     id 20
     name lwrist
     direction 1 -4.48968e-011 -8.00486e-028   
     length 1.7086   
     axis 3.27501e-015 90 90   XYZ
    dof ry
    limits (-180.0 0.0)
 end
  begin
     id 21 
     name lhand
     direction 1 -4.48977e-011 -1.60161e-027   
     length 0.6241   
     axis 1.02148e-015 90 90   XYZ
    dof rx rz
    limits (-90.0 90.0)
           (-45.0 45.0)
  end
  begin
     id 22 
     name lfingers
     direction 1 -4.49049e-011 -3.21275e-027   
     length 0.503166   
     axis 2.04295e-015 90 90   XYZ
    dof rx
    limits (0.0 90.0)
  end
  begin
     id 23
     name lthumb
     direction 0.707107 -6.34975e-011 0.707107   
     length 0.722448   
     axis -90 45 -1.62303e-014   XYZ
    dof rx rz
    limits (-45.0 45.0)
           (-45.0 45.0)
  end
  begin
     id 24 
     name rclavicle
     direction -0.904485 0.355099 -0.236246   
     length 3.18329  
     axis 0 0 0   XYZ 
    dof ry rz
    limits (-10.0 20.0)
           (-20.0 0.0)
  end
  begin
     id 25 
     name rhumerus
     direction -1 -4.48953e-011 1.32816e-027  
     length 5.22034   
     axis -180 30 90   XYZ
    dof rx ry rz
    limits (-90.0 60.0)
           (-90.0 90.0)
           (-90.0 90.0)
  end
  begin
     id 26 
     name rradius
     direction -1 -4.48965e-011 -3.93727e-027   
     length 3.41809   
     axis -180 30 90   XYZ
    dof rx
    limits (-10.0 170.0)
  end
  begin
     id 27 
     name rwrist
     direction -1 -4.48962e-011 -8.003e-028   
     length 1.70904   
     axis 3.27501e-015 -90 -90   XYZ
    dof ry
    limits (-180.0 0.0)
  end
  begin
     id 28
     name rhand
     direction -1 -4.49008e-011 -1.60365e-027   
     length 0.77534   
     axis 1.02148e-015 -90 -90   XYZ
    dof rx rz
    limits (-90.0 90.0)
           (-45.0 45.0)
  end
  begin
     id 29
     name rfingers
     direction -1 -4.49001e-011 -3.2064e-027   
     length 0.625099   
     axis 2.04295e-015 -90 -90   XYZ
    dof rx
    limits (0.0 90.0)
  end
  begin
     id 30
     name rthumb
     direction -0.707107 -6.34989e-011 0.707107   
     length 0.897521   
     axis -90 -45 1.62303e-014   XYZ
    dof rx rz
    limits (-45.0 45.0)
           (-45.0 45.0)
  end
:hierarchy
  begin
    root lhipjoint rhipjoint lowerback
    lhipjoint lfemur
    lfemur ltibia
    ltibia lfoot
    lfoot ltoes
    rhipjoint rfemur
    rfemur rtibia
    rtibia rfoot
    rfoot rtoes
    lowerback upperback
    upperback thorax
    thorax lowerneck lclavicle rclavicle
    lowerneck upperneck
    upperneck head
    lclavicle lhumerus
    lhumerus lradius
    lradius lwrist
    lwrist lhand lthumb
    lhand lfingers
    rclavicle rhumerus
    rhumerus rradius
    rradius rwrist
    rwrist rhand rthumb
    rhand rfingers
  end

#!OML:ASF \\sashay\E\Suitcase\Project 1\Capture day 1\Session 1\Male1.ASF
:FULLY-SPECIFIED
:DEGREES
142
root 1.11945 17.5865 -36.1864 8.08692 1.90761 -2.2351
lowerback 2.17994 -0.761761 4.0249
upperback 3.98988 -1.18736 8.19129
thorax 3.0187 -0.621755 6.28699
lowerneck -9.89155 -5.33544 -7.14345
upperneck 2.32386 -6.25914 0.326347
head 2.73496 -3.18888 0.999728
rclavicle -7.95139e-016 1.00187e-013
rhumerus -22.0585 -10.9924 -69.8918
rradius 24.5894
rwrist -10.9471
rhand -22.5418 16.2047
rfingers 7.12502
rthumb 3.88557 -13.7396
lclavicle -7.95139e-016 1.00187e-013
lhumerus -38.9475 -3.15893 95.3579
lradius 46.0126
lwrist -2.79235
lhand 0.370909 43.6257
lfingers 7.12502
lthumb 25.9456 71.8749
rfemur -16.5534 -0.305671 22.6999
rtibia 27.2767
rfoot -18.6955 -10.0617
rtoes 10.3156
lfemur -16.3056 -3.06208 -17.2837
ltibia 27.4632
lfoot -19.7644 4.34817
ltoes -1.12459
143
root 1.12927 17.5906 -36.2063 8.25018 2.15537 -2.12077
lowerback 2.30128 -0.782884 4.02426
upperback 4.01248 -1.20925 8.37314
thorax 2.98173 -0.636367 6.48574
lowerneck -9.939 -5.21785 -7.16545
upperneck 2.09714 -6.0884 0.0942848
head 2.65042 -3.10767 0.940004
rclavicle -1.03368e-014 -8.11041e-014
rhumerus -21.7904 -10.964 -69.5953
rradius 24.7152
rwrist -11.0938
rhand -22.7539 15.3201
rfingers 7.12502
rthumb 3.68072 -14.6279
lclavicle -1.03368e-014 -8.11041e-014
lhumerus -38.9422 -3.47862 95.7339
lradius 46.1981
lwrist -2.96107
lhand 0.430249 43.8048
lfingers 7.12502
lthumb 26.0024 72.0457
rfemur -16.7546 -0.359209 22.5478
rtibia 27.2543
rfoot -18.63 -10.1993
rtoes 10.4036
lfemur -16.5363 -3.15691 -17.4107
ltibia 27.3347
lfoot -19.6292 4.2175
ltoes -1.40015
144
root 1.13259 17.5938 -36.2157 8.40794 2.2814 -2.09514
lowerback 2.43463 -0.826618 4.23015
upperback 3.99999 -1.25317 8.43284
thorax 2.89506 -0.653139 6.43422
lowerneck -10.0612 -5.05606 -7.13869
upperneck 2.00848 -5.86153 -0.0280704
head 2.62818 -2.99683 0.907809
rclavicle -1.19271e-014 -2.8625e-014
rhumerus -21.8609 -11.3457 -69.4234
rradius 24.7676
rwrist -10.7056
rhand -22.5551 16.709
rfingers 7.12502
rthumb 3.87277 -13.2356
lclavicle -1.19271e-014 -2.8625e-014
lhumerus -39.0886 -3.97697 95.8912
lradius 46.6464
lwrist -2.67245
lhand 0.31311 43.5453
lfingers 7.12502
lthumb 25.8902 71.8027
rfemur -16.9327 -0.19253 22.5051
rtibia 27.2305
rfoot -18.5737 -10.4119
rtoes 10.5312
lfemur -16.7124 -3.11651 -17.4293
ltibia 27.1814
lfoot -19.4958 4.10753
ltoes -1.83642
145
root 1.13746 17.6013 -36.2335 8.65969 2.5039 -1.75441
lowerback 2.36051 -0.855757 4.0121
upperback 4.14166 -1.3147 8.48839
thorax 3.09742 -0.69277 6.61985
lowerneck -10.4905 -4.95511 -7.03107
upperneck 1.83967 -5.69802 -0.239041
head 2.63175 -2.9185 0.823182
rclavicle 2.38542e-015 -9.54166e-015
rhumerus -21.2947 -11.3068 -69.274
rradius 24.6045
rwrist -10.9648
rhand -22.6514 16.5384
rfingers 7.12502
rthumb 3.77975 -13.4078
lclavicle 2.38542e-015 -9.54166e-015
lhumerus -39.0457 -4.54353 96.1228
lradius 47.1826
lwrist -2.61956
lhand 1.3058 44.9445
lfingers 7.12502
lthumb 26.8405 73.0595
rfemur -17.2226 -0.368915 22.1194
rtibia 27.2081
rfoot -18.468 -10.4272
rtoes 10.6127
lfemur -17.0133 -3.36154 -17.791
ltibia 27.0622
lfoot -19.3115 4.15109
ltoes -2.29599
146
root 1.14273 17.6047 -36.2466 8.74236 2.78122 -1.77589
lowerback 2.51349 -0.83961 4.05899
upperback 4.10912 -1.27876 8.73038
thorax 2.98125 -0.677616 6.85788
lowerneck -10.3734 -4.88303 -7.0282
upperneck 1.66771 -5.60454 -0.494115
head 2.53774 -2.87675 0.750015
rclavicle -1.19271e-014 -4.45278e-014
rhumerus -21.2981 -11.3497 -68.8663
rradius 24.6844
rwrist -11.0772
rhand -23.333 16.0611
rfingers 7.12502
rthumb 3.12155 -13.8958
lclavicle -1.19271e-014 -4.45278e-014
lhumerus -39.2435 -4.88584 96.554
lradius 47.4334
lwrist -2.92044
lhand 0.617207 43.5822
lfingers 7.12502
lthumb 26.1814 71.7967
rfemur -17.302 -0.492452 22.1447
rtibia 27.1453
rfoot -18.4083 -10.5127
rtoes 10.7431
lfemur -17.1579 -3.50994 -17.7509
ltibia 26.9606
lfoot -19.1698 4.07646
ltoes -2.62239
147
root 1.14592 17.607 -36.2532 8.85257 2.78186 -1.78283
lowerback 2.44226 -0.87427 4.23929
upperback 4.30375 -1.35325 8.83535
thorax 3.23357 -0.71359 6.871
lowerneck -10.7394 -4.74925 -7.18791
upperneck 1.54789 -5.37559 -0.529631
head 2.56163 -2.76345 0.773721
rclavicle -1.90833e-014 -4.13472e-014
rhumerus -20.9757 -11.5468 -68.7488
rradius 24.8365
rwrist -10.7583
rhand -23.118 16.6067
rfingers 7.12502
rthumb 3.3291 -13.347
lclavicle -1.90833e-014 -4.13472e-014
lhumerus -39.07 -5.27339 96.6849
lradius 47.6462
lwrist -2.60134
lhand 0.650975 43.8417
lfingers 7.12502
lthumb 26.2137 72.0514
rfemur -17.4135 -0.454234 22.1371
rtibia 27.0843
rfoot -18.3318 -10.5308
rtoes 10.8183
lfemur -17.2717 -3.43245 -17.754
ltibia 26.8668
lfoot -19.0797 4.03894
ltoes -2.76286
148
root 1.14612 17.6094 -36.2611 8.94865 2.80117 -1.74786
lowerback 2.62717 -0.765621 4.17026
upperback 4.22353 -1.18398 8.97695
thorax 3.03521 -0.632797 7.06626
lowerneck -10.5567 -4.7074 -7.01059
upperneck 1.4442 -5.35052 -0.775993
head 2.47581 -2.75491 0.669642
rclavicle -9.54166e-015 -6.67916e-014
rhumerus -21.0684 -11.77 -68.3792
rradius 24.7319
rwrist -10.7082
rhand -23.2497 16.6436
rfingers 7.12502
rthumb 3.20192 -13.3121
lclavicle -9.54166e-015 -6.67916e-014
lhumerus -39.5658 -5.93814 97.0755
lradius 48.2439
lwrist -2.51374
lhand 0.386766 42.9042
lfingers 7.12502
lthumb 25.9608 71.1512
rfemur -17.4853 -0.21273 22.0869
rtibia 27.003
rfoot -18.2963 -10.7952
rtoes 10.8831
lfemur -17.3745 -3.57494 -17.7789
ltibia 26.8083
lfoot -18.9894 4.18528
ltoes -2.78146
149
root 1.14984 17.6099 -36.271 8.99713 3.00203 -1.71598
lowerback 2.77246 -0.830525 4.36379
upperback 4.29123 -1.26181 9.04032
thorax 3.03028 -0.667397 7.02731
lowerneck -10.7807 -4.62563 -7.02692
upperneck 1.38002 -5.2197 -0.828831
head 2.4899 -2.6908 0.659374
rclavicle -7.95139e-015 0
rhumerus -21.0349 -11.5685 -68.3308
rradius 24.9447
rwrist -10.8539
rhand -23.8229 16.8018
rfingers 7.12502
rthumb 2.64843 -13.1615
lclavicle -7.95139e-015 0
lhumerus -39.492 -6.21218 97.0954
lradius 48.5145
lwrist -2.53171
lhand 0.535841 42.4587
lfingers 7.12502
lthumb 26.1035 70.6847
rfemur -17.5196 -0.407575 22.0697
rtibia 26.9419
rfoot -18.2257 -10.8386
rtoes 10.8203
lfemur -17.4941 -3.20306 -17.8317
ltibia 26.7639
lfoot -19.0069 3.64102
ltoes -2.64911
150
root 1.15399 17.612 -36.276 9.10245 3.05537 -1.55309
lowerback 2.87846 -0.82998 4.32959
upperback 4.29364 -1.25105 9.08243
thorax 2.97405 -0.663827 7.09419
lowerneck -10.8272 -4.58033 -6.96293
upperneck 1.26608 -5.16267 -0.931458
head 2.45193 -2.66278 0.618888
rclavicle 1.35174e-014 -2.8625e-014
rhumerus -20.8769 -11.9735 -68.1196
rradius 24.7712
rwrist -10.56
rhand -23.7867 17.2353
rfingers 7.12502
rthumb 2.68337 -12.7276
lclavicle 1.35174e-014 -2.8625e-014
lhumerus -39.6635 -6.46871 97.1568
lradius 48.8368
lwrist -2.72246
lhand 2.11347 45.0825
lfingers 7.12502
lthumb 27.6131 73.0763
rfemur -17.6216 -0.523758 21.888
rtibia 26.9127
rfoot -18.149 -10.8339
rtoes 10.6879
lfemur -17.5875 -3.23299 -18.0214
ltibia 26.6974
lfoot -18.9601 3.6215
ltoes -2.56848
151
root 1.15257 17.613 -36.2858 9.1423 3.32202 -1.53881
lowerback 2.81211 -0.859669 4.32066
upperback 4.45287 -1.31749 9.27583
thorax 3.19343 -0.703309 7.31356
lowerneck -10.8602 -4.59971 -7.1004
upperneck 0.937435 -5.17653 -0.957215
head 2.35035 -2.66368 0.636173
rclavicle 7.95139e-016 -7.95139e-014
rhumerus -20.5653 -12.2726 -67.8829
rradius 24.7609
rwrist -10.3302
rhand -24.3953 16.6447
rfingers 7.12502
rthumb 2.09555 -13.3247
lclavicle 7.95139e-016 -7.95139e-014
lhumerus -39.5434 -6.81139 97.409
lradius 49.2211
lwrist -2.44823
lhand 0.534555 41.6644
lfingers 7.12502
lthumb 26.1023 69.8905
rfemur -17.6721 -0.495435 21.8984
rtibia 26.9156
rfoot -18.1692 -11.12
rtoes 10.6739
lfemur -17.6877 -3.2012 -18.0097
ltibia 26.6264
lfoot -18.9172 3.34286
ltoes -2.53659
152
root 1.15219 17.6148 -36.2925 9.2402 3.41837 -1.46901
lowerback 2.9238 -0.881479 4.36559
upperback 4.38073 -1.32721 9.31801
thorax 3.0557 -0.706601 7.33435
lowerneck -10.5519 -4.57117 -7.08459
upperneck 0.688366 -5.17529 -0.951239
head 2.20903 -2.65545 0.644275
rclavicle -4.45278e-014 -1.55847e-013
rhumerus -20.5771 -12.5651 -67.7157
rradius 24.6891
rwrist -10.0107
rhand -24.3355 16.84
rfingers 7.12502
rthumb 2.15335 -13.1288
lclavicle -4.45278e-014 -1.55847e-013
lhumerus -39.7004 -7.02321 97.4017
lradius 49.2891
lwrist -2.51052
lhand 0.750955 42.5106
lfingers 7.12502
lthumb 26.3095 70.706
rfemur -17.7905 -0.471591 21.8221
rtibia 26.9355
rfoot -18.179 -11.2366
rtoes 10.6991
lfemur -17.7783 -3.26989 -18.0741
ltibia 26.5425
lfoot -18.8639 3.34043
ltoes -2.66822
153
root 1.14889 17.6175 -36.2997 9.40907 3.50049 -1.35863
lowerback 2.83675 -0.824713 4.27513
upperback 4.44042 -1.26943 9.43253
thorax 3.16845 -0.683788 7.51238
lowerneck -10.5866 -4.66196 -7.2626
upperneck 0.453322 -5.27993 -0.899799
head 2.14721 -2.70134 0.687004
rclavicle 1.59028e-014 5.08889e-014
rhumerus -20.3743 -12.8581 -67.4516
rradius 24.5563
rwrist -9.9243
rhand -24.5996 17.1547
rfingers 7.12502
rthumb 1.89831 -12.8166
lclavicle 1.59028e-014 5.08889e-014
lhumerus -39.6107 -7.31145 97.5744
lradius 49.5882
lwrist -2.30472
lhand 0.267769 41.9554
lfingers 7.12502
lthumb 25.8468 70.2191
rfemur -17.993 -0.310932 21.7026
rtibia 26.9528
rfoot -18.1985 -11.4658
rtoes 10.8298
lfemur -17.9486 -3.50349 -18.1526
ltibia 26.4578
lfoot -18.7654 3.50903
ltoes -2.87301
154
root 1.14946 17.6172 -36.3049 9.47088 3.68227 -1.37279
lowerback 2.94863 -0.88488 4.41908
upperback 4.40282 -1.33336 9.5044
thorax 3.07171 -0.712005 7.50969
lowerneck -10.4962 -4.67033 -7.33013
upperneck 0.306191 -5.29777 -0.828388
head 2.08673 -2.7044 0.723854
rclavicle -4.77083e-015 -2.54444e-014
rhumerus -20.4799 -12.7724 -67.3689
rradius 24.6851
rwrist -9.94493
rhand -25.2858 16.8901
rfingers 7.12502
rthumb 1.23554 -13.086
lclavicle -4.77083e-015 -2.54444e-014
lhumerus -39.7039 -7.39059 97.5262
lradius 49.8021
lwrist -2.44874
lhand 0.674625 42.25
lfingers 7.12502
lthumb 26.2364 70.4563
rfemur -18.0772 -0.389328 21.7341
rtibia 26.9761
rfoot -18.2168 -11.5493
rtoes 10.8688
lfemur -18.026 -3.5432 -18.1147
ltibia 26.3759
lfoot -18.7288 3.40949
ltoes -3.02428
155
root 1.14711 17.6197 -36.3075 9.56654 3.7455 -1.30481
lowerback 2.88375 -0.887228 4.44864
upperback 4.45517 -1.34812 9.48635
thorax 3.16391 -0.718559 7.47292
lowerneck -10.4988 -4.70806 -7.2301
upperneck 0.142768 -5.36773 -0.75416
head 2.03377 -2.73269 0.728296
rclavicle -1.35174e-014 1.59028e-014
rhumerus -20.1693 -13.7188 -67.2639
rradius 24.2451
rwrist -9.40138
rhand -24.9996 17.3106
rfingers 7.12502
rthumb 1.51196 -12.6638
lclavicle -1.35174e-014 1.59028e-014
lhumerus -39.7996 -7.60145 97.3901
lradius 50.1226
lwrist -2.3029
lhand 0.786239 42.758
lfingers 7.12502
lthumb 26.3432 70.9483
rfemur -18.1948 -0.30602 21.6655
rtibia 27.007
rfoot -18.2463 -11.6867
rtoes 10.908
lfemur -18.1089 -3.45663 -18.1729
ltibia 26.2937
lfoot -18.7106 3.27778
ltoes -3.0456
